<?xml version="1.0" ?><svg id="Layer_1" style="enable-background:new 0 0 165 165;" version="1.1" viewBox="0 0 165 165" xml:space="preserve" stroke="#27BA90" xmlns="http://www.w3.org/2000/svg" xmlns:xlink="http://www.w3.org/1999/xlink"><g><g><g><path stroke="#27BA90" d="M163.5,82.5c0-18-5.8-35-16.7-49.3V22.4c0-0.5-0.5-1-1-1h-10.1C121,8.6,102.1,1.5,82.5,1.5c-17.2,0-33.6,5.3-47.4,15.3     H17.6c-3.3,0-5.9,2.6-5.9,5.9v0c0,9.2,0,14.3,0,20.3C5,55,1.5,68.7,1.5,82.5c0,44.5,36.2,81,81,81c21.2,0,41.1-8.1,56.3-22.8h9.1     c2.6,0,4.8-2.1,4.8-4.8v-13.1C159.8,110.7,163.5,96.7,163.5,82.5z M142.2,23.4L121.9,36l-20.4-12.6H142.2z M99,24.2l21,12.9     L99,50.1V24.2z M121.9,38.4l20.4,12.6h-40.7L121.9,38.4z M123.8,37.2l21-12.9v25.9L123.8,37.2z M82.5,3.5     c18.3,0,36,6.4,50.1,17.9H98c-0.5,0-1,0.5-1,1v29.5c0,0.5,0.4,1,1,1c0,0,0,0,0,0h47.8l0,0c0.5,0,1-0.4,1-1V36.6     c9.6,13.4,14.7,29.3,14.7,45.9c0,12.6-3,25.1-8.8,36.2c0-10.7,0-40.4,0-51.1c0-2.6-2.1-4.8-4.8-4.8H86.1c0-2.1,0,16.8,0-40.1     c0-3.3-2.6-5.9-5.9-5.9H38.6C51.6,8.1,66.7,3.5,82.5,3.5z M52.6,67.6c0,14.1,0,40.1,0,54H17.7c-2.2,0-3.9-1.7-3.9-3.9V30h70.3     v32.8H57.3C54.7,62.9,52.6,65,52.6,67.6z M13.8,22.8c0-2.2,1.8-3.9,3.9-3.9h62.5c2.1,0,3.9,1.7,3.9,3.9V28H13.8V22.8z M54.6,67.6     c0-1.5,1.2-2.8,2.8-2.8h27.7c0,0,0,0,0,0s0,0,0,0h62.9c1.5,0,2.8,1.2,2.8,2.8v6.1H54.6V67.6z M11.8,47.4v70.2     C6.5,107,3.5,95.1,3.5,82.5C3.5,70.3,6.3,58.2,11.8,47.4z M14.6,122.8c0.9,0.5,1.9,0.9,3.1,0.9h34.9V136c0,1,0.3,2,0.9,2.8H27.1     C22.3,134,18.1,128.6,14.6,122.8z M29.2,140.7h28.2h78.6c-14.6,13.4-33.4,20.8-53.4,20.8C62,161.5,43.2,153.6,29.2,140.7z      M147.9,138.7c-7.2,0-78.1,0-90.6,0c-1.5,0-2.8-1.2-2.8-2.8V75.8h96.2V136C150.7,137.5,149.5,138.7,147.9,138.7z"/></g><g><path stroke="#27BA90" d="M19.7,61.8h3.8c0.6,0,1-0.4,1-1s-0.4-1-1-1h-3.8c-0.6,0-1,0.4-1,1S19.2,61.8,19.7,61.8z"/></g><g><path stroke="#27BA90" d="M26.9,61.8h5.7c0.6,0,1-0.4,1-1s-0.4-1-1-1h-5.7c-0.6,0-1,0.4-1,1S26.3,61.8,26.9,61.8z"/></g><g><path stroke="#27BA90" d="M24.5,65c0-0.6-0.4-1-1-1h-3.8c-0.6,0-1,0.4-1,1s0.4,1,1,1h3.8C24.1,66,24.5,65.6,24.5,65z"/></g><g><path stroke="#27BA90" d="M26.9,66h5.7c0.6,0,1-0.4,1-1s-0.4-1-1-1h-5.7c-0.6,0-1,0.4-1,1S26.3,66,26.9,66z"/></g><g><path stroke="#27BA90" d="M43.1,69.2H30.3c-0.6,0-1,0.4-1,1s0.4,1,1,1h12.9c0.6,0,1-0.4,1-1S43.7,69.2,43.1,69.2z"/></g><g><path stroke="#27BA90" d="M43.1,74H30.3c-0.6,0-1,0.4-1,1s0.4,1,1,1h12.9c0.6,0,1-0.4,1-1S43.7,74,43.1,74z"/></g><g><path stroke="#27BA90" d="M30.3,80.8h12.9c0.6,0,1-0.4,1-1s-0.4-1-1-1H30.3c-0.6,0-1,0.4-1,1S29.7,80.8,30.3,80.8z"/></g><g><path stroke="#27BA90" d="M80.2,146.8c0-0.6-0.4-1-1-1H55c-0.6,0-1,0.4-1,1s0.4,1,1,1h24.2C79.7,147.8,80.2,147.3,80.2,146.8z"/></g><g><path stroke="#27BA90" d="M88.1,146.8c0-0.6-0.4-1-1-1h-4c-0.6,0-1,0.4-1,1s0.4,1,1,1h4C87.6,147.8,88.1,147.3,88.1,146.8z"/></g><g><path stroke="#27BA90" d="M90.5,147.8h2.6c0.6,0,1-0.4,1-1s-0.4-1-1-1h-2.6c-0.6,0-1,0.4-1,1S89.9,147.8,90.5,147.8z"/></g><g><path stroke="#27BA90" d="M110,150.7H85.8c-0.6,0-1,0.4-1,1s0.4,1,1,1H110c0.6,0,1-0.4,1-1S110.6,150.7,110,150.7z"/></g><g><path stroke="#27BA90" d="M81.9,150.7h-4c-0.6,0-1,0.4-1,1s0.4,1,1,1h4c0.6,0,1-0.4,1-1S82.5,150.7,81.9,150.7z"/></g><g><path stroke="#27BA90" d="M74.5,150.7h-2.6c-0.6,0-1,0.4-1,1s0.4,1,1,1h2.6c0.6,0,1-0.4,1-1S75.1,150.7,74.5,150.7z"/></g><g><path stroke="#27BA90" d="M20.4,20.6c-1.6,0-2.8,1.3-2.8,2.8c0,1.6,1.3,2.8,2.8,2.8c1.6,0,2.8-1.3,2.8-2.8C23.2,21.9,22,20.6,20.4,20.6z      M20.4,24.3c-0.5,0-0.8-0.4-0.8-0.8c0-0.5,0.4-0.8,0.8-0.8c0.5,0,0.8,0.4,0.8,0.8C21.2,23.9,20.9,24.3,20.4,24.3z"/></g><g><path d="M27.3,20.6c-1.6,0-2.8,1.3-2.8,2.8c0,1.6,1.3,2.8,2.8,2.8c1.6,0,2.8-1.3,2.8-2.8C30.2,21.9,28.9,20.6,27.3,20.6z      M27.3,24.3c-0.5,0-0.8-0.4-0.8-0.8c0-0.5,0.4-0.8,0.8-0.8c0.5,0,0.8,0.4,0.8,0.8C28.2,23.9,27.8,24.3,27.3,24.3z"/></g><g><path stroke="#27BA90" d="M34.3,20.6c-1.6,0-2.8,1.3-2.8,2.8c0,1.6,1.3,2.8,2.8,2.8c1.6,0,2.8-1.3,2.8-2.8C37.1,21.9,35.8,20.6,34.3,20.6z      M34.3,24.3c-0.5,0-0.8-0.4-0.8-0.8c0-0.5,0.4-0.8,0.8-0.8c0.5,0,0.8,0.4,0.8,0.8C35.1,23.9,34.7,24.3,34.3,24.3z"/></g><g><path stroke="#27BA90" d="M77.4,20.6H42.6c-1.6,0-2.8,1.3-2.8,2.8c0,1.6,1.3,2.8,2.8,2.8h34.8c1.6,0,2.8-1.3,2.8-2.8C80.2,21.9,79,20.6,77.4,20.6z      M77.4,24.3H42.6c-0.5,0-0.8-0.4-0.8-0.8c0-0.5,0.4-0.8,0.8-0.8h34.8c0.5,0,0.8,0.4,0.8,0.8C78.2,23.9,77.9,24.3,77.4,24.3z"/></g><g><polygon stroke="#27BA90" points="20.4,105 27.9,108.4 27.9,106.6 22.3,104 22.3,103.9 27.9,101.3 27.9,99.5 20.4,103    "/></g><g><polygon stroke="#27BA90" points="29.5,112.1 31.1,112.1 38,97.4 36.4,97.4    "/></g><g><polygon stroke="#27BA90" points="39.6,101.3 45.2,103.9 45.2,104 39.6,106.6 39.6,108.4 47.1,105 47.1,103 39.6,99.5    "/></g><g><path stroke="#27BA90" d="M86.6,114.8H61.9c-0.6,0-1,0.4-1,1v9.3c0,0.6,0.4,1,1,1h24.7c0.6,0,1-0.4,1-1v-9.3C87.6,115.2,87.1,114.8,86.6,114.8z      M85.6,124.1H62.9v-7.3h22.7V124.1z"/></g><g><path stroke="#27BA90" d="M115,114.8H90.3c-0.6,0-1,0.4-1,1v9.3c0,0.6,0.4,1,1,1H115c0.6,0,1-0.4,1-1v-9.3C116,115.2,115.5,114.8,115,114.8z      M114,124.1H91.3v-7.3H114V124.1z"/></g><g><path stroke="#27BA90" d="M143.4,114.8h-24.7c-0.6,0-1,0.4-1,1v9.3c0,0.6,0.4,1,1,1h24.7c0.6,0,1-0.4,1-1v-9.3     C144.4,115.2,143.9,114.8,143.4,114.8z M142.4,124.1h-22.7v-7.3h22.7V124.1z"/></g><g><path stroke="#27BA90" d="M61.7,66.1c-1.8,0-3.2,1.4-3.2,3.2s1.4,3.2,3.2,3.2s3.2-1.4,3.2-3.2S63.5,66.1,61.7,66.1z M61.7,70.6     c-0.7,0-1.2-0.5-1.2-1.2s0.5-1.2,1.2-1.2s1.2,0.5,1.2,1.2S62.4,70.6,61.7,70.6z"/></g><g><path stroke="#27BA90" d="M69.4,66.1c-1.8,0-3.2,1.4-3.2,3.2s1.4,3.2,3.2,3.2s3.2-1.4,3.2-3.2S71.2,66.1,69.4,66.1z M69.4,70.6     c-0.7,0-1.2-0.5-1.2-1.2s0.5-1.2,1.2-1.2s1.2,0.5,1.2,1.2S70.1,70.6,69.4,70.6z"/></g><g><path stroke="#27BA90" d="M77.1,66.1c-1.8,0-3.2,1.4-3.2,3.2s1.4,3.2,3.2,3.2s3.2-1.4,3.2-3.2S78.9,66.1,77.1,66.1z M77.1,70.6     c-0.7,0-1.2-0.5-1.2-1.2s0.5-1.2,1.2-1.2s1.2,0.5,1.2,1.2S77.8,70.6,77.1,70.6z"/></g><g><path stroke="#27BA90" d="M143.5,66.1H87.9c-1.8,0-3.2,1.4-3.2,3.2s1.4,3.2,3.2,3.2h55.7c1.8,0,3.2-1.4,3.2-3.2S145.3,66.1,143.5,66.1z      M143.5,70.6H87.9c-0.7,0-1.2-0.5-1.2-1.2s0.5-1.2,1.2-1.2h55.7c0.7,0,1.2,0.5,1.2,1.2S144.2,70.6,143.5,70.6z"/></g><g><path stroke="#27BA90" d="M61.9,111.5h28c0.6,0,1-0.4,1-1v-28c0-0.6-0.4-1-1-1h-28c-0.6,0-1,0.4-1,1v28C60.9,111,61.3,111.5,61.9,111.5z      M62.9,83.5h26v26h-26V83.5z"/></g><g><path stroke="#27BA90" d="M87.1,93.8L85,93.3c-0.1-0.3-0.3-0.7-0.4-1l1.2-1.9c0.2-0.4,0.2-0.9-0.1-1.2l-2.4-2.4c-0.3-0.3-0.8-0.4-1.2-0.1l-1.9,1.2     c-0.3-0.2-0.7-0.3-1-0.4l-0.5-2.2c-0.1-0.5-0.5-0.8-1-0.8h-3.4c-0.5,0-0.9,0.3-1,0.8l-0.5,2.1c-0.3,0.1-0.7,0.3-1,0.4l-1.9-1.2     c-0.4-0.3-0.9-0.2-1.2,0.1l-2.4,2.4c-0.3,0.3-0.4,0.8-0.1,1.2l1.2,1.9c-0.2,0.3-0.3,0.7-0.4,1l-2.1,0.5c-0.5,0.1-0.8,0.5-0.8,1     v3.4c0,0.5,0.3,0.9,0.8,1l2.1,0.5c0.1,0.4,0.3,0.7,0.4,1l-1.2,1.9c-0.2,0.4-0.2,0.9,0.1,1.2l2.4,2.4c0.3,0.3,0.8,0.4,1.2,0.1     l1.9-1.2c0.3,0.2,0.7,0.3,1,0.4l0.5,2.1c0.1,0.5,0.5,0.8,1,0.8h3.4c0.5,0,0.9-0.3,1-0.8l0.5-2.1c0.4-0.1,0.7-0.3,1-0.4l1.9,1.2     c0.4,0.2,0.9,0.2,1.2-0.1l2.4-2.4c0.3-0.3,0.4-0.8,0.1-1.2l-1.2-1.9c0.2-0.3,0.3-0.7,0.4-1l2.1-0.5c0.5-0.1,0.8-0.5,0.8-1v-3.4     C87.9,94.3,87.6,93.9,87.1,93.8z M85.9,97.4L84,97.8c-0.4,0.1-0.6,0.4-0.7,0.7c-0.2,0.6-0.4,1.2-0.7,1.7c-0.2,0.3-0.2,0.7,0,1     l1.1,1.7l-1.3,1.3l-1.7-1.1c-0.3-0.2-0.7-0.2-1,0c-0.5,0.3-1.1,0.5-1.7,0.7c-0.3,0.1-0.6,0.4-0.7,0.7l-0.4,1.9H75l-0.4-1.9     c-0.1-0.4-0.3-0.6-0.7-0.7c-0.6-0.2-1.2-0.4-1.7-0.7c-0.3-0.2-0.7-0.2-1,0l-1.7,1.1l-1.3-1.3l1.1-1.7c0.2-0.3,0.2-0.7,0-1     c-0.3-0.5-0.5-1.1-0.7-1.7c-0.1-0.3-0.4-0.6-0.7-0.7l-1.9-0.4v-1.8l1.9-0.4c0.4-0.1,0.6-0.3,0.7-0.7c0.2-0.6,0.4-1.2,0.7-1.7     c0.2-0.3,0.2-0.7,0-1L68.1,90l1.3-1.3l1.7,1.1c0.3,0.2,0.7,0.2,1,0c0.6-0.3,1.1-0.5,1.7-0.7c0.4-0.1,0.6-0.4,0.7-0.7l0.4-1.9h1.8     l0.4,1.9c0.1,0.4,0.4,0.6,0.7,0.7c0.6,0.2,1.2,0.4,1.7,0.7c0.3,0.2,0.7,0.2,1,0l1.7-1.1l1.3,1.3l-1.1,1.7c-0.2,0.3-0.2,0.7,0,1     c0.3,0.6,0.5,1.1,0.7,1.7c0.1,0.4,0.4,0.6,0.7,0.7l1.9,0.4V97.4z"/></g><g><path stroke="#27BA90" d="M75.9,91.4c-2.8,0-5.1,2.3-5.1,5.1s2.3,5.1,5.1,5.1c2.8,0,5.1-2.3,5.1-5.1S78.7,91.4,75.9,91.4z M75.9,99.6     c-1.7,0-3.1-1.4-3.1-3.1s1.4-3.1,3.1-3.1c1.7,0,3.1,1.4,3.1,3.1S77.6,99.6,75.9,99.6z"/></g><g><path d="M96.4,92.8h41.1c0.6,0,1-0.4,1-1v-9.3c0-0.6-0.4-1-1-1H96.4c-0.6,0-1,0.4-1,1v9.3C95.4,92.3,95.9,92.8,96.4,92.8z      M97.4,83.5h39.1v7.3H97.4V83.5z"/></g><g><path stroke="#27BA90" d="M19.7,34.8h3.8c0.6,0,1-0.4,1-1s-0.4-1-1-1h-3.8c-0.6,0-1,0.4-1,1S19.2,34.8,19.7,34.8z"/></g><g><path d="M26.9,34.8h5.7c0.6,0,1-0.4,1-1s-0.4-1-1-1h-5.7c-0.6,0-1,0.4-1,1S26.3,34.8,26.9,34.8z"/></g><g><path stroke="#27BA90" d="M19.7,39.1h3.8c0.6,0,1-0.4,1-1s-0.4-1-1-1h-3.8c-0.6,0-1,0.4-1,1S19.2,39.1,19.7,39.1z"/></g><g><path d="M26.9,39.1h5.7c0.6,0,1-0.4,1-1s-0.4-1-1-1h-5.7c-0.6,0-1,0.4-1,1S26.3,39.1,26.9,39.1z"/></g><g><path stroke="#27BA90" d="M29.3,43.2c0,0.6,0.4,1,1,1h12.9c0.6,0,1-0.4,1-1s-0.4-1-1-1H30.3C29.7,42.2,29.3,42.7,29.3,43.2z"/></g><g><path stroke="#27BA90" d="M46.7,44.2h12.9c0.6,0,1-0.4,1-1s-0.4-1-1-1H46.7c-0.6,0-1,0.4-1,1S46.2,44.2,46.7,44.2z"/></g><g><path stroke="#27BA90" d="M63.2,44.2H76c0.6,0,1-0.4,1-1s-0.4-1-1-1H63.2c-0.6,0-1,0.4-1,1S62.6,44.2,63.2,44.2z"/></g><g><path stroke="#27BA90" d="M43.1,47H30.3c-0.6,0-1,0.4-1,1s0.4,1,1,1h12.9c0.6,0,1-0.4,1-1S43.7,47,43.1,47z"/></g><g><path stroke="#27BA90" d="M46.7,49h12.9c0.6,0,1-0.4,1-1s-0.4-1-1-1H46.7c-0.6,0-1,0.4-1,1S46.2,49,46.7,49z"/></g><g><path stroke="#27BA90" d="M63.2,49H76c0.6,0,1-0.4,1-1s-0.4-1-1-1H63.2c-0.6,0-1,0.4-1,1S62.6,49,63.2,49z"/></g><g><path stroke="#27BA90" d="M43.1,51.8H30.3c-0.6,0-1,0.4-1,1s0.4,1,1,1h12.9c0.6,0,1-0.4,1-1S43.7,51.8,43.1,51.8z"/></g><g><path stroke="#27BA90" d="M60.6,52.8c0-0.6-0.4-1-1-1H46.7c-0.6,0-1,0.4-1,1s0.4,1,1,1h12.9C60.1,53.8,60.6,53.4,60.6,52.8z"/></g><g><path stroke="#27BA90" d="M63.2,53.8H76c0.6,0,1-0.4,1-1s-0.4-1-1-1H63.2c-0.6,0-1,0.4-1,1S62.6,53.8,63.2,53.8z"/></g><g><path stroke="#27BA90" d="M86.6,128.1H61.9c-0.6,0-1,0.4-1,1s0.4,1,1,1h24.7c0.6,0,1-0.4,1-1S87.1,128.1,86.6,128.1z"/></g><g><path stroke="#27BA90" d="M73.1,132.1H61.9c-0.6,0-1,0.4-1,1s0.4,1,1,1h11.2c0.6,0,1-0.4,1-1S73.6,132.1,73.1,132.1z"/></g><g><path d="M101.4,132.1H90.3c-0.6,0-1,0.4-1,1s0.4,1,1,1h11.2c0.6,0,1-0.4,1-1S102,132.1,101.4,132.1z"/></g><g><path d="M143.4,128.1h-24.7c-0.6,0-1,0.4-1,1s0.4,1,1,1h24.7c0.6,0,1-0.4,1-1S143.9,128.1,143.4,128.1z"/></g><g><path d="M129.8,132.1h-11.2c-0.6,0-1,0.4-1,1s0.4,1,1,1h11.2c0.6,0,1-0.4,1-1S130.4,132.1,129.8,132.1z"/></g><g><path d="M115,128.1H90.3c-0.6,0-1,0.4-1,1s0.4,1,1,1H115c0.6,0,1-0.4,1-1S115.5,128.1,115,128.1z"/></g><g><path d="M96.4,98.8h32.2c0.6,0,1-0.4,1-1s-0.4-1-1-1H96.4c-0.6,0-1,0.4-1,1S95.9,98.8,96.4,98.8z"/></g><g><path d="M115.3,102.8H96.4c-0.6,0-1,0.4-1,1s0.4,1,1,1h18.8c0.6,0,1-0.4,1-1S115.8,102.8,115.3,102.8z"/></g></g></g></svg>