<?xml version="1.0" ?><!DOCTYPE svg  PUBLIC '-//W3C//DTD SVG 1.1//EN'  'http://www.w3.org/Graphics/SVG/1.1/DTD/svg11.dtd'><svg height="141px" id="code_engineering" style="enable-background:new 0 0 122 141;" version="1.1" viewBox="0 0 122 141" width="122px" xml:space="preserve" xmlns="http://www.w3.org/2000/svg" xmlns:xlink="http://www.w3.org/1999/xlink"><g id="code_engineering_1_"><g><circle cx="97.334" cy="13.667" r="13.667" style="fill:#E4E5E7;"/></g><g><path d="M41,26c-6.065,0-11-4.935-11-11S34.935,4,41,4s11,4.935,11,11S47.065,26,41,26z M41,6    c-4.962,0-9,4.038-9,9s4.038,9,9,9s9-4.038,9-9S45.962,6,41,6z" style="fill:#27BA90;"/></g><g><rect height="5" style="fill:#C4C4C4;" width="120" x="1" y="135"/></g><g><rect height="5" style="fill:#E4E5E7;" width="120" x="1" y="90"/></g><g><g><path d="M122,141H0V89h122V141z M2,139h118V91H2V139z"/></g><g><g><path d="M14.5,103.5h-7v-7h7V103.5z M9.5,101.5h3v-3h-3V101.5z"/></g><g><path d="M24.5,103.5h-7v-7h7V103.5z M19.5,101.5h3v-3h-3V101.5z"/></g><g><path d="M34.5,103.5h-7v-7h7V103.5z M29.5,101.5h3v-3h-3V101.5z"/></g><g><path d="M44.5,103.5h-7v-7h7V103.5z M39.5,101.5h3v-3h-3V101.5z"/></g><g><path d="M54.5,103.5h-7v-7h7V103.5z M49.5,101.5h3v-3h-3V101.5z"/></g><g><path d="M64.5,103.5h-7v-7h7V103.5z M59.5,101.5h3v-3h-3V101.5z"/></g><g><path d="M74.5,103.5h-7v-7h7V103.5z M69.5,101.5h3v-3h-3V101.5z"/></g><g><path d="M84.5,103.5h-7v-7h7V103.5z M79.5,101.5h3v-3h-3V101.5z"/></g><g><path d="M94.5,103.5h-7v-7h7V103.5z M89.5,101.5h3v-3h-3V101.5z"/></g><g><path d="M104.5,103.5h-7v-7h7V103.5z M99.5,101.5h3v-3h-3V101.5z"/></g><g><path d="M19.5,113.5h-12v-7h12V113.5z M9.5,111.5h8v-3h-8V111.5z"/></g><g><path d="M29.5,113.5h-7v-7h7V113.5z M24.5,111.5h3v-3h-3V111.5z"/></g><g><path d="M39.5,113.5h-7v-7h7V113.5z M34.5,111.5h3v-3h-3V111.5z"/></g><g><path d="M49.5,113.5h-7v-7h7V113.5z M44.5,111.5h3v-3h-3V111.5z"/></g><g><path d="M59.5,113.5h-7v-7h7V113.5z M54.5,111.5h3v-3h-3V111.5z"/></g><g><path d="M69.5,113.5h-7v-7h7V113.5z M64.5,111.5h3v-3h-3V111.5z"/></g><g><path d="M79.5,113.5h-7v-7h7V113.5z M74.5,111.5h3v-3h-3V111.5z"/></g><g><path d="M89.5,113.5h-7v-7h7V113.5z M84.5,111.5h3v-3h-3V111.5z"/></g><g><path d="M99.5,113.5h-7v-7h7V113.5z M94.5,111.5h3v-3h-3V111.5z"/></g><g><path d="M19.5,133.5h-12v-7h12V133.5z M9.5,131.5h8v-3h-8V131.5z"/></g><g><path d="M29.5,133.5h-7v-7h7V133.5z M24.5,131.5h3v-3h-3V131.5z"/></g><g><path d="M79.5,133.5h-47v-7h47V133.5z M34.5,131.5h43v-3h-43V131.5z"/></g><g><path d="M89.5,133.5h-7v-7h7V133.5z M84.5,131.5h3v-3h-3V131.5z"/></g><g><path d="M99.5,133.5h-7v-7h7V133.5z M94.5,131.5h3v-3h-3V131.5z"/></g><g><path d="M109.5,133.5h-7v-7h7V133.5z M104.5,131.5h3v-3h-3V131.5z"/></g><g><path d="M114.5,103.5h-7v-7h7V103.5z M109.5,101.5h3v-3h-3V101.5z"/></g><g><path d="M14.5,123.5h-7v-7h7V123.5z M9.5,121.5h3v-3h-3V121.5z"/></g><g><path d="M24.5,123.5h-7v-7h7V123.5z M19.5,121.5h3v-3h-3V121.5z"/></g><g><path d="M34.5,123.5h-7v-7h7V123.5z M29.5,121.5h3v-3h-3V121.5z"/></g><g><path d="M44.5,123.5h-7v-7h7V123.5z M39.5,121.5h3v-3h-3V121.5z"/></g><g><path d="M54.5,123.5h-7v-7h7V123.5z M49.5,121.5h3v-3h-3V121.5z"/></g><g><path d="M64.5,123.5h-7v-7h7V123.5z M59.5,121.5h3v-3h-3V121.5z"/></g><g><path d="M74.5,123.5h-7v-7h7V123.5z M69.5,121.5h3v-3h-3V121.5z"/></g><g><path d="M84.5,123.5h-7v-7h7V123.5z M79.5,121.5h3v-3h-3V121.5z"/></g><g><path d="M94.5,123.5h-7v-7h7V123.5z M89.5,121.5h3v-3h-3V121.5z"/></g><g><path d="M104.5,123.5h-7v-7h7V123.5z M99.5,121.5h3v-3h-3V121.5z"/></g><g><path d="M114.5,123.5h-7v-10h-5v-7h12V123.5z M109.5,121.5h3v-13h-8v3h5V121.5z"/></g></g></g><g><g><rect height="2" width="10" x="71" y="9"/></g><g><rect height="2" width="10" x="76" y="14"/></g><g><rect height="2" width="5" x="91" y="14"/></g><g><rect height="2" width="5" x="101" y="14"/></g><g><rect height="2" width="5" x="76" y="19"/></g><g><rect height="2" width="5" x="86" y="19"/></g><g><rect height="2" width="15" x="96" y="19"/></g><g><rect height="2" width="10" x="81" y="24"/></g><g><rect height="2" width="5" x="96" y="24"/></g><g><rect height="2" width="10" x="106" y="24"/></g><g><rect height="2" width="5" x="76" y="29"/></g><g><rect height="2" width="10" x="86" y="29"/></g><g><rect height="2" width="5" x="101" y="29"/></g></g><g><g><rect height="15" style="fill:#34C9A2;" width="5" x="1" y="65"/></g><g><rect height="15" style="fill:#34C9A2;" width="50" x="11" y="65"/></g><g><rect height="10" style="fill:#27BA90;" width="5" x="6" y="67.5"/></g><g><rect height="2" style="fill:#C4C4C4;" width="50" x="61" y="71.5"/></g><g><polygon points="111,71.167 114.333,69.167 121,71.167 121,73.834 114.333,75.834 111,73.834    " style="fill:#C4C4C4;"/></g><g><rect height="15" width="2" x="55" y="65"/></g><g><rect height="15" width="2" x="50" y="65"/></g><g><rect height="15" width="2" x="45" y="65"/></g></g><g><polygon points="16,60 1,60 1,25 11,15 16,15   " style="fill:#E4E5E7;"/></g><g><g><rect height="15" style="fill:#34C9A2;" width="5" x="106" y="35"/></g><g><rect height="15" style="fill:#34C9A2;" width="50" x="51" y="35"/></g><g><rect height="10" style="fill:#27BA90;" width="5" x="101" y="37.5"/></g><g><rect height="15" width="2" x="55" y="35"/></g><g><rect height="15" width="2" x="60" y="35"/></g><g><rect height="15" width="2" x="65" y="35"/></g><g><rect height="5" style="fill:#C4C4C4;" width="35" x="16" y="40"/></g></g><g><rect height="5" style="fill:#27BA90;" width="2" x="40"/></g><g><rect height="5" style="fill:#27BA90;" width="2" x="40" y="25"/></g><g><rect height="2" style="fill:#27BA90;" width="5" x="26" y="14"/></g><g><rect height="2" style="fill:#27BA90;" width="5" x="51" y="14"/></g><g><rect height="4.999" style="fill:#27BA90;" transform="matrix(0.7071 0.7071 -0.7071 0.7071 18.954 -33.4368)" width="2" x="48.839" y="3.661"/></g><g><rect height="5" style="fill:#27BA90;" transform="matrix(0.7071 0.7071 -0.7071 0.7071 26.2765 -15.7593)" width="2" x="31.161" y="21.339"/></g><g><rect height="2" style="fill:#27BA90;" transform="matrix(0.7072 0.7071 -0.7071 0.7072 13.7746 -20.9357)" width="5" x="29.661" y="5.161"/></g><g><rect height="2" style="fill:#27BA90;" transform="matrix(0.7071 0.7071 -0.7071 0.7071 31.4541 -28.2592)" width="4.999" x="47.339" y="22.839"/></g><g><g><rect height="2" width="10" x="76" y="59"/></g><g><rect height="2" width="5" x="91" y="59"/></g><g><rect height="2" width="10" x="76" y="79"/></g><g><rect height="2" width="5" x="91" y="79"/></g><g><rect height="2" width="10" x="101" y="59"/></g><g><rect height="2" width="5" x="71" y="64"/></g><g><rect height="2" width="10" x="81" y="64"/></g><g><rect height="2" width="5" x="96" y="64"/></g></g><g><circle cx="28.5" cy="57.5" r="2.5" style="fill:#27BA90;"/></g><g><circle cx="66" cy="25" r="2.5" style="fill:#C4C4C4;"/></g><g><circle cx="16.033" cy="5.033" r="5.032" style="fill:#34C9A2;"/></g></g></svg>